<svg xmlns="http://www.w3.org/2000/svg" width="123" height="45" viewBox="0 0 123 45" fill="none">
  <path fill-rule="evenodd" clip-rule="evenodd" d="M9.88672 0V9.86368C14.1349 9.86368 17.5805 13.3077 17.5805 17.5575C17.5805 21.8057 14.1365 25.2513 9.88672 25.2513V35.1149C19.5825 35.1149 27.4442 27.2548 27.4442 17.5575C27.4442 7.86012 19.5841 0 9.88672 0Z" fill="#4541FF"/>
  <path d="M9.88505 35.1152H0V45.0003H9.88505V35.1152Z" fill="#00E7FF"/>
  <path d="M45.4994 15.5282C44.593 15.075 43.4851 14.8491 42.1728 14.8491H35.7593V32.2067H38.0726V25.3995H42.1743C43.4851 25.3995 44.5945 25.195 45.5009 24.786C46.4073 24.3771 47.094 23.7789 47.564 22.9915C48.0324 22.2042 48.2674 21.255 48.2674 20.1426C48.2674 19.1095 48.0324 18.1955 47.564 17.4005C47.0924 16.604 46.4058 15.9798 45.4994 15.5282ZM45.565 21.9051C45.3071 22.4132 44.9012 22.813 44.3488 23.1029C43.7964 23.3929 43.0716 23.5378 42.1728 23.5378H38.0711V16.7184H42.1728C43.0701 16.7184 43.7964 16.8817 44.3488 17.2067C44.9012 17.5333 45.3071 17.9575 45.565 18.4824C45.8229 19.0073 45.9526 19.5673 45.9526 20.164C45.9526 20.8171 45.8229 21.3969 45.565 21.9051Z" fill="#494949"/>
  <path d="M55.6099 19.0684C54.6806 19.0684 53.9192 19.3293 53.3271 19.8496C53.0295 20.1106 52.7716 20.4158 52.5534 20.7637L52.5107 19.3064H50.3408V32.2052H52.5702V23.0587C52.6145 22.9519 52.6603 22.8466 52.7137 22.7443C52.9685 22.256 53.3271 21.8715 53.7925 21.5938C54.2579 21.3161 54.8271 21.1772 55.5031 21.1772C55.7091 21.1772 55.8937 21.1833 56.057 21.1955C56.2203 21.2077 56.3973 21.2337 56.588 21.2733V19.2347C56.5087 19.195 56.3637 19.1569 56.1531 19.1218C55.941 19.0867 55.7594 19.0684 55.6099 19.0684Z" fill="#494949"/>
  <path d="M60.5448 19.3062H58.3154V32.2049H60.5448V19.3062Z" fill="#494949"/>
  <path d="M59.4495 14.6094C59.0207 14.6094 58.6957 14.733 58.4775 14.9787C58.2593 15.2243 58.1494 15.5234 58.1494 15.8729C58.1494 16.2147 58.2593 16.5061 58.4775 16.7487C58.6957 16.9914 59.0192 17.1119 59.4495 17.1119C59.8798 17.1119 60.2064 16.9914 60.4337 16.7487C60.6596 16.5061 60.774 16.2147 60.774 15.8729C60.774 15.5234 60.6611 15.2259 60.4337 14.9787C60.2064 14.733 59.8783 14.6094 59.4495 14.6094Z" fill="#494949"/>
  <path d="M71.7939 19.5399C71.1774 19.2255 70.445 19.0684 69.595 19.0684C68.5543 19.0684 67.6418 19.3369 66.859 19.8725C66.4409 20.1594 66.0732 20.5027 65.7542 20.901L65.6856 19.3064H63.5752V32.2052H65.8046V22.9824C65.9435 22.7077 66.1037 22.4498 66.2929 22.2148C66.6194 21.8089 67.004 21.4916 67.4496 21.2611C67.8936 21.0307 68.3911 20.9147 68.9389 20.9147C69.4958 20.9147 69.9643 21.0078 70.3458 21.1955C70.7273 21.3817 71.0157 21.6823 71.211 22.0958C71.4063 22.5094 71.5025 23.0541 71.5025 23.7286V32.2052H73.7319V23.753C73.7319 22.6238 73.5625 21.7189 73.2252 21.0353C72.8865 20.3517 72.4104 19.8527 71.7939 19.5399Z" fill="#494949"/>
  <path d="M81.5831 30.5127C81.3801 30.5448 81.1879 30.56 81.0048 30.56C80.7591 30.56 80.5271 30.5249 80.3135 30.4532C80.0984 30.3815 79.9244 30.235 79.7886 30.0122C79.6528 29.7894 79.5856 29.4568 79.5856 29.0112V20.9878H81.9936V19.3062H79.5856V16.1704H77.3562V19.3062H75.0078V20.9878H77.3562V28.999C77.3562 29.8581 77.492 30.5387 77.7621 31.0438C78.0322 31.5488 78.3939 31.9074 78.8471 32.1226C79.3003 32.3378 79.7962 32.4446 80.3379 32.4446C80.7347 32.4446 81.075 32.4186 81.3573 32.3667C81.6396 32.3149 81.8669 32.2615 82.0424 32.205L82.0302 30.4288C81.9341 30.4532 81.786 30.4807 81.5831 30.5127Z" fill="#494949"/>
  <path d="M89.3379 19.0684C88.4086 19.0684 87.6472 19.3293 87.0551 19.8496C86.7576 20.1121 86.4997 20.4158 86.2815 20.7637L86.2387 19.3064H84.0688V32.2052H86.2982V23.0587C86.3425 22.9519 86.3883 22.8466 86.4417 22.7443C86.6965 22.256 87.0551 21.8715 87.5205 21.5938C87.9859 21.3161 88.5566 21.1772 89.2311 21.1772C89.4371 21.1772 89.6233 21.1833 89.785 21.1955C89.9483 21.2077 90.1253 21.2337 90.316 21.2733V19.2347C90.2367 19.195 90.0917 19.1569 89.8812 19.1218C89.6706 19.0867 89.489 19.0684 89.3379 19.0684Z" fill="#494949"/>
  <path d="M101.32 29.3928V23.3837C101.32 22.4223 101.115 21.6212 100.706 20.9818C100.297 20.3425 99.7312 19.8633 99.0079 19.5459C98.2846 19.2285 97.4545 19.0698 96.516 19.0698C95.4753 19.0698 94.5705 19.259 93.8044 19.6359C93.0369 20.0128 92.4433 20.495 92.0221 21.078C91.601 21.6624 91.3904 22.2636 91.3904 22.8847H93.6198C93.6198 22.5185 93.7342 22.1812 93.9662 21.8714C94.1966 21.5617 94.5201 21.3114 94.9382 21.1207C95.3548 20.9299 95.8385 20.8353 96.3863 20.8353C97.276 20.8353 97.9504 21.0642 98.4067 21.5205C98.8645 21.9783 99.0918 22.5917 99.0918 23.3623V24.3877H96.9219C95.1488 24.3877 93.7388 24.7478 92.689 25.4666C91.6391 26.1853 91.1157 27.2412 91.1157 28.6314C91.1157 29.3394 91.2958 29.9818 91.659 30.5632C92.0206 31.1431 92.5287 31.6024 93.1849 31.9396C93.8411 32.2768 94.6056 32.4462 95.4799 32.4462C96.1788 32.4462 96.809 32.3241 97.3706 32.083C97.9306 31.8404 98.4158 31.5352 98.8248 31.1644C98.9377 31.0622 99.0445 30.9584 99.1452 30.8531C99.1574 30.963 99.1727 31.0744 99.1895 31.1888C99.252 31.6146 99.3405 31.9533 99.4519 32.2082H101.777V32.0174C101.626 31.668 101.513 31.2499 101.437 30.7662C101.358 30.2794 101.32 29.8216 101.32 29.3928ZM98.8172 29.0464C98.515 29.4676 98.1061 29.8216 97.5888 30.1069C97.0715 30.3938 96.4764 30.5357 95.8004 30.5357C94.9977 30.5357 94.3873 30.3206 93.9708 29.8918C93.5527 29.463 93.3451 28.9381 93.3451 28.3186C93.3451 27.5235 93.6869 26.9284 94.3706 26.5301C95.0542 26.1334 96.0232 25.9335 97.279 25.9335H99.0918V28.5917C99.017 28.7428 98.927 28.8938 98.8172 29.0464Z" fill="#494949"/>
  <path d="M121.862 21.0704C121.528 20.3868 121.039 19.8817 120.395 19.5567C119.751 19.2301 118.969 19.0684 118.047 19.0684C116.95 19.0684 116.021 19.3247 115.258 19.8374C114.74 20.1853 114.312 20.6065 113.964 21.0979C113.78 20.7133 113.545 20.3913 113.254 20.1304C112.468 19.4239 111.47 19.0699 110.262 19.0699C109.11 19.0699 108.145 19.3384 107.37 19.8741C107.025 20.1121 106.721 20.3913 106.451 20.7072L106.386 19.3079H104.275V32.2067H106.505V22.755C106.589 22.5658 106.682 22.3858 106.792 22.2164C107.054 21.8105 107.402 21.4931 107.834 21.2627C108.267 21.0322 108.806 20.9163 109.45 20.9163C110.005 20.9163 110.491 21.0094 110.904 21.197C111.318 21.3832 111.638 21.6823 111.864 22.0912C112.091 22.5002 112.204 23.0434 112.204 23.7179V32.2067H114.434V23.6355C114.463 23.3624 114.519 23.0999 114.606 22.8481C114.737 22.4743 114.928 22.1431 115.178 21.8532C115.428 21.5633 115.738 21.3344 116.108 21.1681C116.477 21.0017 116.904 20.9178 117.389 20.9178C117.945 20.9178 118.428 20.9987 118.837 21.1619C119.246 21.3252 119.565 21.6091 119.791 22.015C120.017 22.4209 120.131 22.9854 120.131 23.7072V32.2067H122.361V23.7301C122.362 22.6406 122.196 21.754 121.862 21.0704Z" fill="#494949"/>
</svg>